#!OML:ASF E:\motion texture\Top Level 1\Subject 1\Session 1\male.ASF
:FULLY-SPECIFIED
:DEGREES
442
root -13.7697 18.0873 6.59973 121.52 -79.6162 -115.673
lowerback -1.041 3.79576 7.61195
upperback -1.24979 4.91358 3.71267
thorax -0.394675 2.36314 -0.367075
lowerneck -17.7909 1.38929 -1.50372
upperneck 17.9338 1.52827 3.39123
head 8.47873 0.953454 1.5771
rclavicle -1.49089e-015 3.57812e-014
rhumerus -24.1811 11.26 -79.1751
rradius 68.3374
rwrist 18.3462
rhand -24.7903 -23.0693
rfingers 7.12502
rthumb 1.71413 -53.0421
lclavicle -1.49089e-015 3.57812e-014
lhumerus -39.0089 4.00084 89.2889
lradius 49.5593
lwrist -9.90328
lhand -15.1025 24.5892
lfingers 7.12502
lthumb 11.0658 54.2775
rfemur -6.8899 1.30662 33.1139
rtibia 15.0992
rfoot -8.78063 -10.4415
rtoes 17.1228
lfemur -28.8386 0.191024 -6.79491
ltibia 44.7122
lfoot -5.14974 4.94923
ltoes -15.2675
443
root -13.9066 18.0808 6.58319 121.732 -79.5146 -115.785
lowerback -1.13117 3.9336 7.70539
upperback -1.28013 5.0894 3.63814
thorax -0.350223 2.45097 -0.484466
lowerneck -17.8165 1.36887 -1.55915
upperneck 17.9284 1.5071 3.43373
head 8.48114 0.944537 1.59828
rclavicle -3.22031e-014 -4.37326e-014
rhumerus -23.9325 11.7723 -79.3144
rradius 68.9735
rwrist 18.5108
rhand -24.8019 -22.9663
rfingers 7.12502
rthumb 1.70285 -52.9392
lclavicle -3.22031e-014 -4.37326e-014
lhumerus -39.3988 4.27625 89.1682
lradius 50.1869
lwrist -9.57831
lhand -15.1751 24.8269
lfingers 7.12502
lthumb 10.9958 54.5189
rfemur -6.43202 1.32199 33.2449
rtibia 15.0022
rfoot -9.12965 -10.4592
rtoes 16.6462
lfemur -29.2078 0.200545 -6.66745
ltibia 43.1521
lfoot -5.28547 5.17903
ltoes -15.0352
444
root -14.0437 18.073 6.56745 121.956 -79.4142 -115.901
lowerback -1.22278 4.06999 7.79701
upperback -1.31341 5.26315 3.56365
thorax -0.307367 2.53767 -0.600198
lowerneck -17.8417 1.35088 -1.61122
upperneck 17.9249 1.48957 3.4705
head 8.48412 0.936957 1.61743
rclavicle 2.30342e-014 3.4191e-014
rhumerus -23.6692 12.2918 -79.4553
rradius 69.6002
rwrist 18.6785
rhand -24.8023 -22.864
rfingers 7.12502
rthumb 1.70254 -52.837
lclavicle 2.30342e-014 3.4191e-014
lhumerus -39.773 4.52935 89.0482
lradius 50.8348
lwrist -9.26173
lhand -15.2487 25.0602
lfingers 7.12502
lthumb 10.9248 54.756
rfemur -5.9914 1.34104 33.3703
rtibia 14.9248
rfoot -9.47884 -10.4837
rtoes 16.1382
lfemur -29.5506 0.192637 -6.53445
ltibia 41.5517
lfoot -5.37393 5.39671
ltoes -14.8085
445
root -14.1808 18.0641 6.55251 122.176 -79.3155 -116.008
lowerback -1.31565 4.20341 7.88662
upperback -1.34999 5.43283 3.49021
thorax -0.266873 2.62219 -0.713249
lowerneck -17.8661 1.33586 -1.6613
upperneck 17.924 1.47638 3.50326
head 8.48777 0.931112 1.63547
rclavicle 1.91951e-014 -1.27222e-014
rhumerus -23.3904 12.8207 -79.5971
rradius 70.2166
rwrist 18.8498
rhand -24.7959 -22.7582
rfingers 7.12502
rthumb 1.7087 -52.7311
lclavicle 1.91951e-014 -1.27222e-014
lhumerus -40.1301 4.75987 88.9309
lradius 51.5004
lwrist -8.95542
lhand -15.3226 25.2843
lfingers 7.12502
lthumb 10.8536 54.9839
rfemur -5.56913 1.36344 33.4914
rtibia 14.8684
rfoot -9.82761 -10.516
rtoes 15.5995
lfemur -29.8713 0.166066 -6.39491
ltibia 39.927
lfoot -5.41985 5.60775
ltoes -14.5994
446
root -14.3181 18.0542 6.53838 122.397 -79.2188 -116.111
lowerback -1.40909 4.33443 7.97367
upperback -1.38812 5.59917 3.41769
thorax -0.227336 2.70498 -0.823429
lowerneck -17.8926 1.32316 -1.71004
upperneck 17.9255 1.46664 3.533
head 8.49254 0.926685 1.65275
rclavicle 1.31322e-014 2.5842e-014
rhumerus -23.0943 13.3572 -79.7379
rradius 70.8231
rwrist 19.0262
rhand -24.7833 -22.6497
rfingers 7.12502
rthumb 1.7209 -52.6226
lclavicle 1.31322e-014 2.5842e-014
lhumerus -40.4651 4.96624 88.8185
lradius 52.1801
lwrist -8.66408
lhand -15.3955 25.4995
lfingers 7.12502
lthumb 10.7833 55.2027
rfemur -5.16341 1.38886 33.6072
rtibia 14.8345
rfoot -10.1758 -10.5568
rtoes 15.0347
lfemur -30.1692 0.12104 -6.24972
ltibia 38.2912
lfoot -5.42547 5.8177
ltoes -14.3989
447
root -14.4557 18.0432 6.52507 122.623 -79.1241 -116.215
lowerback -1.50283 4.46317 8.05713
upperback -1.42807 5.76243 3.34616
thorax -0.189364 2.78615 -0.93017
lowerneck -17.9184 1.31289 -1.75725
upperneck 17.928 1.46037 3.56017
head 8.49747 0.923712 1.66934
rclavicle -2.16303e-014 2.68359e-014
rhumerus -22.782 13.9012 -79.8768
rradius 71.4183
rwrist 19.2096
rhand -24.7676 -22.5359
rfingers 7.12502
rthumb 1.73602 -52.5086
lclavicle -2.16303e-014 2.68359e-014
lhumerus -40.7778 5.14785 88.7125
lradius 52.87
lwrist -8.39107
lhand -15.4688 25.6972
lfingers 7.12502
lthumb 10.7126 55.4041
rfemur -4.77356 1.41795 33.7169
rtibia 14.8247
rfoot -10.5222 -10.6055
rtoes 14.4388
lfemur -30.4443 0.0577589 -6.0998
ltibia 36.6569
lfoot -5.39886 6.03379
ltoes -14.2131
448
root -14.5937 18.0313 6.51261 122.849 -79.0319 -116.318
lowerback -1.59719 4.58944 8.1374
upperback -1.46835 5.92221 3.27578
thorax -0.151296 2.86559 -1.03346
lowerneck -17.9465 1.30469 -1.803
upperneck 17.9322 1.45716 3.58453
head 8.50333 0.922005 1.68517
rclavicle -1.46355e-014 -3.51849e-014
rhumerus -22.4517 14.4521 -80.0122
rradius 72.0025
rwrist 19.3979
rhand -24.7499 -22.419
rfingers 7.12502
rthumb 1.75307 -52.3915
lclavicle -1.46355e-014 -3.51849e-014
lhumerus -41.0656 5.30355 88.6147
lradius 53.5698
lwrist -8.13846
lhand -15.5384 25.8935
lfingers 7.12502
lthumb 10.6455 55.6038
rfemur -4.39812 1.448 33.8201
rtibia 14.8405
rfoot -10.8675 -10.6604
rtoes 13.8103
lfemur -30.6966 -0.0242304 -5.94599
ltibia 35.0373
lfoot -5.34473 6.25653
ltoes -14.036
449
root -14.7322 18.0185 6.50096 123.08 -78.9422 -116.425
lowerback -1.69161 4.71348 8.21351
upperback -1.50909 6.07892 3.20652
thorax -0.113682 2.94349 -1.13289
lowerneck -17.9754 1.29866 -1.84669
upperneck 17.9371 1.45693 3.60642
head 8.50952 0.921585 1.70022
rclavicle 3.26628e-014 -3.97569e-016
rhumerus -22.1037 15.0093 -80.1434
rradius 72.5751
rwrist 19.5907
rhand -24.733 -22.2952
rfingers 7.12502
rthumb 1.76943 -52.2676
lclavicle 3.26628e-014 -3.97569e-016
lhumerus -41.3258 5.43396 88.5256
lradius 54.2747
lwrist -7.91004
lhand -15.6034 26.0741
lfingers 7.12502
lthumb 10.5827 55.7877
rfemur -4.03748 1.47964 33.9164
rtibia 14.884
rfoot -11.2106 -10.7215
rtoes 13.1511
lfemur -30.9271 -0.123463 -5.78877
ltibia 33.4452
lfoot -5.26893 6.48704
ltoes -13.8645
450
root -14.8713 18.0049 6.49016 123.316 -78.8557 -116.536
lowerback -1.78639 4.83532 8.28483
upperback -1.55035 6.23263 3.13804
thorax -0.0765321 3.0199 -1.22846
lowerneck -18.0045 1.29459 -1.88756
upperneck 17.9425 1.45918 3.62578
head 8.51589 0.92226 1.71426
rclavicle 9.46712e-015 -7.81224e-014
rhumerus -21.7398 15.5721 -80.2701
rradius 73.1361
rwrist 19.7893
rhand -24.7161 -22.1752
rfingers 7.12502
rthumb 1.7858 -52.1475
lclavicle 9.46712e-015 -7.81224e-014
lhumerus -41.5583 5.53806 88.4458
lradius 54.9829
lwrist -7.70692
lhand -15.6655 26.2386
lfingers 7.12502
lthumb 10.5229 55.9552
rfemur -3.69102 1.51111 34.0044
rtibia 14.9561
rfoot -11.5507 -10.787
rtoes 12.4631
lfemur -31.1362 -0.239581 -5.63016
ltibia 31.8914
lfoot -5.17468 6.72651
ltoes -13.69
451
root -15.011 17.9907 6.48021 123.557 -78.7717 -116.653
lowerback -1.88076 4.95514 8.35199
upperback -1.59197 6.38364 3.07049
thorax -0.0400881 3.09495 -1.32044
lowerneck -18.0343 1.29217 -1.92647
upperneck 17.9486 1.46338 3.64419
head 8.52256 0.923889 1.72792
rclavicle -3.21161e-014 -2.32578e-014
rhumerus -21.3589 16.1396 -80.3912
rradius 73.6846
rwrist 19.991
rhand -24.7023 -22.0528
rfingers 7.12502
rthumb 1.79904 -52.025
lclavicle -3.21161e-014 -2.32578e-014
lhumerus -41.7621 5.61589 88.3757
lradius 55.6934
lwrist -7.53106
lhand -15.7216 26.3918
lfingers 7.12502
lthumb 10.4687 56.1112
rfemur -3.35889 1.54282 34.0846
rtibia 15.0591
rfoot -11.8857 -10.856
rtoes 11.7366
lfemur -31.3245 -0.369486 -5.47035
ltibia 30.3859
lfoot -5.05775 6.97429
ltoes -13.5145
452
root -15.1516 17.9759 6.47113 123.808 -78.6929 -116.782
lowerback -1.97526 5.07252 8.41214
upperback -1.63325 6.53141 3.00299
thorax -0.0036163 3.16846 -1.40815
lowerneck -18.066 1.29164 -1.96222
upperneck 17.9556 1.46972 3.66082
head 8.52988 0.926565 1.74077
rclavicle 3.516e-015 7.95139e-016
rhumerus -20.9609 16.7112 -80.5063
rradius 74.2215
rwrist 20.1941
rhand -24.6919 -21.9348
rfingers 7.12502
rthumb 1.80914 -51.9069
lclavicle 3.516e-015 7.95139e-016
lhumerus -41.9349 5.66811 88.3156
lradius 56.4044
lwrist -7.38169
lhand -15.7759 26.5257
lfingers 7.12502
lthumb 10.4164 56.2477
rfemur -3.04095 1.5731 34.1529
rtibia 15.1948
rfoot -12.2141 -10.9261
rtoes 10.9719
lfemur -31.4928 -0.511805 -5.31457
ltibia 28.9363
lfoot -4.91456 7.23371
ltoes -13.3343
453
root -15.2931 17.9606 6.46291 124.068 -78.6196 -116.92
lowerback -2.06834 5.18741 8.46461
upperback -1.6753 6.67615 2.93584
thorax 0.0306992 3.24045 -1.49119
lowerneck -18.0965 1.29246 -1.99556
upperneck 17.963 1.47736 3.67681
head 8.5371 0.929938 1.75315
rclavicle -2.68049e-014 1.96797e-014
rhumerus -20.5496 17.2852 -80.6155
rradius 74.7476
rwrist 20.4006
rhand -24.6848 -21.8205
rfingers 7.12502
rthumb 1.81603 -51.7925
lclavicle -2.68049e-014 1.96797e-014
lhumerus -42.0784 5.69427 88.2658
lradius 57.1151
lwrist -7.25922
lhand -15.8343 26.6403
lfingers 7.12502
lthumb 10.36 56.3651
rfemur -2.7379 1.6029 34.2092
rtibia 15.3652
rfoot -12.5333 -10.998
rtoes 10.1647
lfemur -31.6426 -0.666943 -5.16276
ltibia 27.5497
lfoot -4.74717 7.50971
ltoes -13.1573
454
root -15.4354 17.9449 6.45552 124.339 -78.5546 -117.073
lowerback -2.16117 5.29911 8.50608
upperback -1.71679 6.81686 2.86843
thorax 0.0644116 3.31054 -1.56829
lowerneck -18.1288 1.29484 -2.02461
upperneck 17.9716 1.48662 3.68983
head 8.54508 0.934059 1.76407
rclavicle -2.3351e-014 -4.94974e-014
rhumerus -20.1217 17.8616 -80.7177
rradius 75.2613
rwrist 20.6092
rhand -24.6807 -21.7105
rfingers 7.12502
rthumb 1.81995 -51.6825
lclavicle -2.3351e-014 -4.94974e-014
lhumerus -42.1886 5.69577 88.2262
lradius 57.8226
lwrist -7.16087
lhand -15.8898 26.7365
lfingers 7.12502
lthumb 10.3065 56.464
rfemur -2.45029 1.63152 34.2498
rtibia 15.5736
rfoot -12.8428 -11.0702
rtoes 9.31855
lfemur -31.7754 -0.834735 -5.01952
ltibia 26.2339
lfoot -4.56369 7.79681
ltoes -12.9874
